{
  "accessors": [
    {
      "bufferView": 2,
      "componentType": 5126,
      "count": 15908,
      "max": [
        0.4446810185909271,
        -0.043824970722198486,
        0.4482044577598572
      ],
      "min": [
        -0.4605203866958618,
        -0.0724756270647049,
        -0.4535277187824249
      ],
      "type": "VEC3"
    },
    {
      "bufferView": 2,
      "byteOffset": 190896,
      "componentType": 5126,
      "count": 15908,
      "max": [
        0.9183815121650696,
        -0.21868948638439178,
        0.8475925326347351
      ],
      "min": [
        -0.9691591262817383,
        -0.9999994039535522,
        -0.9191880822181702
      ],
      "type": "VEC3"
    },
    {
      "bufferView": 3,
      "componentType": 5126,
      "count": 15908,
      "max": [
        0.9803921580314636,
        0.9803921580314636,
        0.9764705896377563,
        1.0
      ],
      "min": [
        0.0,
        0.0,
        0.0,
        1.0
      ],
      "type": "VEC4"
    },
    {
      "bufferView": 1,
      "componentType": 5126,
      "count": 15908,
      "max": [
        0.971809983253479,
        0.993149995803833
      ],
      "min": [
        0.032660000026226044,
        0.27588000893592834
      ],
      "type": "VEC2"
    },
    {
      "bufferView": 0,
      "componentType": 5125,
      "count": 92802,
      "type": "SCALAR"
    },
    {
      "bufferView": 2,
      "byteOffset": 381792,
      "componentType": 5126,
      "count": 19283,
      "max": [
        0.44643115997314453,
        0.03636014834046364,
        0.4523544907569885
      ],
      "min": [
        -0.46098995208740234,
        -0.051587581634521484,
        -0.458543062210083
      ],
      "type": "VEC3"
    },
    {
      "bufferView": 2,
      "byteOffset": 613188,
      "componentType": 5126,
      "count": 19283,
      "max": [
        0.998905599117279,
        0.9999961853027344,
        0.9996567964553833
      ],
      "min": [
        -0.9997565150260925,
        -0.9998094439506531,
        -0.9989414215087891
      ],
      "type": "VEC3"
    },
    {
      "bufferView": 3,
      "byteOffset": 254528,
      "componentType": 5126,
      "count": 19283,
      "max": [
        0.9803921580314636,
        0.9764705896377563,
        0.9764705896377563,
        1.0
      ],
      "min": [
        0.0,
        0.0,
        0.0,
        1.0
      ],
      "type": "VEC4"
    },
    {
      "bufferView": 1,
      "byteOffset": 127264,
      "componentType": 5126,
      "count": 19283,
      "max": [
        0.9813399910926819,
        0.9980400204658508
      ],
      "min": [
        0.0019499999471008778,
        0.0019499999471008778
      ],
      "type": "VEC2"
    },
    {
      "bufferView": 0,
      "byteOffset": 371208,
      "componentType": 5125,
      "count": 112662,
      "type": "SCALAR"
    }
  ],
  "asset": {
    "extras": {
      "author": "CzernO (https://sketchfab.com/czernobog)",
      "license": "CC-BY-4.0 (http://creativecommons.org/licenses/by/4.0/)",
      "source": "https://sketchfab.com/3d-models/ancient-coin-a9aebd029bb24c3c895487ad1fdb0203",
      "title": "Ancient Coin"
    },
    "generator": "Sketchfab-16.1.0",
    "version": "2.0"
  },
  "bufferViews": [
    {
      "buffer": 0,
      "byteLength": 821856,
      "name": "floatBufferViews",
      "target": 34963
    },
    {
      "buffer": 0,
      "byteLength": 281528,
      "byteOffset": 821856,
      "byteStride": 8,
      "name": "floatBufferViews",
      "target": 34962
    },
    {
      "buffer": 0,
      "byteLength": 844584,
      "byteOffset": 1103384,
      "byteStride": 12,
      "name": "floatBufferViews",
      "target": 34962
    },
    {
      "buffer": 0,
      "byteLength": 563056,
      "byteOffset": 1947968,
      "byteStride": 16,
      "name": "floatBufferViews",
      "target": 34962
    }
  ],
  "buffers": [
    {
      "byteLength": 2511024,
      "uri": "scene.bin"
    }
  ],
  "extensionsUsed": [
    "KHR_materials_specular"
  ],
  "images": [
    {
      "uri": "textures/defaultMat_baseColor.jpeg"
    }
  ],
  "materials": [
    {
      "doubleSided": true,
      "extensions": {
        "KHR_materials_specular": {
          "specularColorFactor": [
            1.0,
            1.0,
            1.0
          ],
          "specularFactor": 0.32152478940888196
        }
      },
      "name": "defaultMat",
      "pbrMetallicRoughness": {
        "baseColorTexture": {
          "index": 0
        },
        "metallicFactor": 0.5897160829442527
      }
    }
  ],
  "meshes": [
    {
      "name": "Object_0",
      "primitives": [
        {
          "attributes": {
            "COLOR_0": 2,
            "NORMAL": 1,
            "POSITION": 0,
            "TEXCOORD_0": 3
          },
          "indices": 4,
          "material": 0,
          "mode": 4
        }
      ]
    },
    {
      "name": "Object_1",
      "primitives": [
        {
          "attributes": {
            "COLOR_0": 7,
            "NORMAL": 6,
            "POSITION": 5,
            "TEXCOORD_0": 8
          },
          "indices": 9,
          "material": 0,
          "mode": 4
        }
      ]
    }
  ],
  "nodes": [
    {
      "children": [
        1
      ],
      "matrix": [
        1.0,
        0.0,
        0.0,
        0.0,
        0.0,
        2.220446049250313e-16,
        -1.0,
        0.0,
        0.0,
        1.0,
        2.220446049250313e-16,
        0.0,
        0.0,
        0.0,
        0.0,
        1.0
      ],
      "name": "Sketchfab_model"
    },
    {
      "children": [
        2,
        3
      ],
      "name": "SubTool-0-8934372.obj"
    },
    {
      "mesh": 0,
      "name": "Object_2"
    },
    {
      "mesh": 1,
      "name": "Object_3"
    }
  ],
  "samplers": [
    {
      "magFilter": 9729,
      "minFilter": 9987,
      "wrapS": 10497,
      "wrapT": 10497
    }
  ],
  "scene": 0,
  "scenes": [
    {
      "name": "Sketchfab_Scene",
      "nodes": [
        0
      ]
    }
  ],
  "textures": [
    {
      "sampler": 0,
      "source": 0
    }
  ]
}
